{
	"asset":{
		"generator":"Khronos glTF Blender I/O v3.6.27",
		"version":"2.0"
	},
	"scene":0,
	"scenes":[
		{
			"name":"Scene",
			"nodes":[
				0
			]
		},
		{
			"name":"Scene.001",
			"nodes":[
				1
			]
		}
	],
	"nodes":[
		{
			"mesh":0,
			"name":"Star",
			"translation":[
				0,
				-0.09711524099111557,
				0
			]
		},
		{
			"mesh":1,
			"name":"Plane"
		}
	],
	"animations":[
		{
			"channels":[
				{
					"sampler":0,
					"target":{
						"node":0,
						"path":"translation"
					}
				},
				{
					"sampler":1,
					"target":{
						"node":0,
						"path":"rotation"
					}
				}
			],
			"name":"StarAction",
			"samplers":[
				{
					"input":8,
					"interpolation":"LINEAR",
					"output":9
				},
				{
					"input":8,
					"interpolation":"LINEAR",
					"output":10
				}
			]
		}
	],
	"materials":[
		{
			"doubleSided":true,
			"name":"Color - Red",
			"pbrMetallicRoughness":{
				"metallicFactor":0,
				"roughnessFactor":0.6000000238418579
			}
		}
	],
	"meshes":[
		{
			"name":"Circle.001",
			"primitives":[
				{
					"attributes":{
						"POSITION":0,
						"NORMAL":1,
						"TEXCOORD_0":2
					},
					"indices":3,
					"material":0
				}
			]
		},
		{
			"name":"Plane",
			"primitives":[
				{
					"attributes":{
						"POSITION":4,
						"NORMAL":5,
						"TEXCOORD_0":6
					},
					"indices":7
				}
			]
		}
	],
	"accessors":[
		{
			"bufferView":0,
			"componentType":5126,
			"count":7753,
			"max":[
				0.9887625575065613,
				1.038378357887268,
				0.4204988479614258
			],
			"min":[
				-0.9887626767158508,
				-0.8467135429382324,
				-0.42049893736839294
			],
			"type":"VEC3"
		},
		{
			"bufferView":1,
			"componentType":5126,
			"count":7753,
			"type":"VEC3"
		},
		{
			"bufferView":2,
			"componentType":5126,
			"count":7753,
			"type":"VEC2"
		},
		{
			"bufferView":3,
			"componentType":5123,
			"count":38400,
			"type":"SCALAR"
		},
		{
			"bufferView":4,
			"componentType":5126,
			"count":4,
			"max":[
				1,
				0,
				1
			],
			"min":[
				-1,
				0,
				-1
			],
			"type":"VEC3"
		},
		{
			"bufferView":5,
			"componentType":5126,
			"count":4,
			"type":"VEC3"
		},
		{
			"bufferView":6,
			"componentType":5126,
			"count":4,
			"type":"VEC2"
		},
		{
			"bufferView":7,
			"componentType":5123,
			"count":6,
			"type":"SCALAR"
		},
		{
			"bufferView":8,
			"componentType":5126,
			"count":3,
			"max":[
				0.08333333333333333
			],
			"min":[
				0
			],
			"type":"SCALAR"
		},
		{
			"bufferView":9,
			"componentType":5126,
			"count":3,
			"type":"VEC3"
		},
		{
			"bufferView":10,
			"componentType":5126,
			"count":3,
			"type":"VEC4"
		}
	],
	"bufferViews":[
		{
			"buffer":0,
			"byteLength":93036,
			"byteOffset":0,
			"target":34962
		},
		{
			"buffer":0,
			"byteLength":93036,
			"byteOffset":93036,
			"target":34962
		},
		{
			"buffer":0,
			"byteLength":62024,
			"byteOffset":186072,
			"target":34962
		},
		{
			"buffer":0,
			"byteLength":76800,
			"byteOffset":248096,
			"target":34963
		},
		{
			"buffer":0,
			"byteLength":48,
			"byteOffset":324896,
			"target":34962
		},
		{
			"buffer":0,
			"byteLength":48,
			"byteOffset":324944,
			"target":34962
		},
		{
			"buffer":0,
			"byteLength":32,
			"byteOffset":324992,
			"target":34962
		},
		{
			"buffer":0,
			"byteLength":12,
			"byteOffset":325024,
			"target":34963
		},
		{
			"buffer":0,
			"byteLength":12,
			"byteOffset":325036
		},
		{
			"buffer":0,
			"byteLength":36,
			"byteOffset":325048
		},
		{
			"buffer":0,
			"byteLength":48,
			"byteOffset":325084
		}
	],
	"buffers":[
		{
			"byteLength":325132,
			"uri":"data:application/octet-stream;base64,"
		}
	]
}
