<?xml version="1.0" encoding="UTF-8" standalone="no"?>
<svg
   xmlns:dc="http://purl.org/dc/elements/1.1/"
   xmlns:cc="http://creativecommons.org/ns#"
   xmlns:rdf="http://www.w3.org/1999/02/22-rdf-syntax-ns#"
   xmlns:svg="http://www.w3.org/2000/svg"
   xmlns="http://www.w3.org/2000/svg"
   xmlns:sodipodi="http://sodipodi.sourceforge.net/DTD/sodipodi-0.dtd"
   xmlns:inkscape="http://www.inkscape.org/namespaces/inkscape"
   width="210mm"
   height="297mm"
   viewBox="0 0 210 297"
   version="1.1"
   id="svg8"
   inkscape:version="1.0beta2 (2b71d25, 2019-12-03)"
   sodipodi:docname="squiggle.svg">
  <defs
     id="defs2">
    <inkscape:path-effect
       lpeversion="1"
       is_visible="true"
       id="path-effect890"
       effect="spiro" />
    <inkscape:path-effect
       lpeversion="1"
       is_visible="true"
       id="path-effect886"
       effect="spiro" />
    <inkscape:path-effect
       lpeversion="1"
       is_visible="true"
       id="path-effect882"
       effect="spiro" />
    <inkscape:path-effect
       only_selected="false"
       apply_with_weight="true"
       apply_no_weight="true"
       helper_size="0"
       steps="2"
       weight="33.333333"
       lpeversion="1"
       is_visible="true"
       id="path-effect878"
       effect="bspline" />
    <inkscape:path-effect
       lpeversion="1"
       is_visible="true"
       id="path-effect874"
       effect="spiro" />
    <inkscape:perspective
       sodipodi:type="inkscape:persp3d"
       inkscape:vp_x="0 : 148.5 : 1"
       inkscape:vp_y="0 : 1000 : 0"
       inkscape:vp_z="210 : 148.5 : 1"
       inkscape:persp3d-origin="105 : 99 : 1"
       id="perspective12" />
    <inkscape:path-effect
       effect="spiro"
       id="path-effect890-7"
       is_visible="true"
       lpeversion="1" />
    <inkscape:path-effect
       effect="spiro"
       id="path-effect890-5"
       is_visible="true"
       lpeversion="1" />
    <inkscape:path-effect
       effect="spiro"
       id="path-effect890-8"
       is_visible="true"
       lpeversion="1" />
  </defs>
  <sodipodi:namedview
     id="base"
     pagecolor="#ffffff"
     bordercolor="#666666"
     borderopacity="1.0"
     inkscape:pageopacity="0.0"
     inkscape:pageshadow="2"
     inkscape:zoom="0.9209348"
     inkscape:cx="261.3284"
     inkscape:cy="578.06663"
     inkscape:document-units="mm"
     inkscape:current-layer="layer1"
     inkscape:document-rotation="0"
     showgrid="false"
     inkscape:window-width="1600"
     inkscape:window-height="880"
     inkscape:window-x="0"
     inkscape:window-y="23"
     inkscape:window-maximized="0" />
  <metadata
     id="metadata5">
    <rdf:RDF>
      <cc:Work
         rdf:about="">
        <dc:format>image/svg+xml</dc:format>
        <dc:type
           rdf:resource="http://purl.org/dc/dcmitype/StillImage" />
        <dc:title />
      </cc:Work>
    </rdf:RDF>
  </metadata>
  <g
     inkscape:label="Layer 1"
     inkscape:groupmode="layer"
     id="layer1">
    <path
       inkscape:connector-curvature="0"
       id="path1029"
       d="m 40.678999,176.43979 c -0.473966,-2.86748 0.06126,-10.22269 1.134163,-15.58595 4.050922,-20.24986 17.308169,-35.18246 34.593765,-38.96547 3.453104,-0.75572 14.951443,-0.76204 18.961711,-0.0104 7.419862,1.39066 14.475832,3.87298 20.152452,7.08972 3.96942,2.24932 9.5556,3.77591 15.94989,4.35876 12.2824,1.11956 25.55479,-3.32922 35.45475,-11.8841 1.24717,-1.07772 2.33472,-1.95949 2.41678,-1.95949 0.26969,0 0.15568,9.01133 -0.14548,11.49948 -2.2475,18.56827 -11.70937,33.51155 -25.80287,40.75088 -8.17377,4.19858 -17.81648,5.28795 -29.3511,3.3159 -5.96087,-1.01911 -13.88573,-3.81552 -19.105759,-6.74172 -2.926096,-1.64029 -6.111155,-2.78261 -10.493256,-3.76337 -2.669172,-0.59738 -3.740187,-0.67354 -9.473609,-0.67354 -7.244863,0 -9.602727,0.36014 -15.325582,2.34085 -5.724681,1.98132 -12.431826,5.85692 -16.798362,9.70661 -0.997661,0.87958 -1.853416,1.59923 -1.901674,1.59923 -0.04826,0 -0.167878,-0.48482 -0.265819,-1.07737 z"
       style="fill:#000000;stroke-width:0.287298" />
  </g>
</svg>
